# xmcd
#
# Track frame offsets:
#  150
#  24416
#  43343
#  65848
#  84693
#  107205
#  126501
#  143148
#  162820
#  187413
#  209892
#  232546
#  253205
#  278500
#  300460
#
# Disc length: 4313 seconds
#
# Revision: 0
# Processed by: cddbd v1.5.1PL0 Copyright (c) Steve Scherf et al.
# Submitted via: AltoMP3_Maker 3.0
#
DISCID=e310d70f
DTITLE=Vlado Georgiev - Zena bez imena
DYEAR=1900
DGENRE=
TTITLE0=zena bez imena
TTITLE1=jedino nam ljubav ostaje
TTITLE2=zivim da te nadem
TTITLE3=Andjele
TTITLE4=nisam kao on
TTITLE5=Mi nismo mi
TTITLE6=sve si mi ti
TTITLE7=lagala si me
TTITLE8=jedina
TTITLE9=istina je
TTITLE10=Sama bez ljubavi
TTITLE11=zbogom ljubavi
TTITLE12=navika
TTITLE13=nes nam
TTITLE14=nes nam 2
EXTD=
EXTT0=
EXTT1=
EXTT2=
EXTT3=
EXTT4=
EXTT5=
EXTT6=
EXTT7=
EXTT8=
EXTT9=
EXTT10=
EXTT11=
EXTT12=
EXTT13=
EXTT14=
PLAYORDER=
